<svg xmlns="http://www.w3.org/2000/svg" width="537.7879" height="489.5832" viewbox="100 100437.7879 389.5832" version="1.1">
<path stroke="black" stroke-width="1" fill="none" d="M310.8663,263.2973 C319.3277,268.1598 327.7892,272.0498 336.2506,274.9673" />
<path stroke="black" stroke-width="1" fill="none" d="M336.2506,274.9673 C344.712,277.8848 353.1735,279.8298 361.6349,280.8023" />
<path stroke="black" stroke-width="1" fill="none" d="M336.2506,274.9673 C344.712,277.8125 353.1735,279.5853 361.6349,280.8023" />
<path stroke="black" stroke-width="1" fill="none" d="M361.6349,280.8023 C370.0964,281.8517 378.5578,282.219 387.0192,281.6359" />
<path stroke="black" stroke-width="1" fill="none" d="M387.0192,281.6359 C395.4807,281.3167 403.9421,280.7165 412.4036,279.1352" />
<path stroke="black" stroke-width="1" fill="none" d="M412.4036,279.1352 C420.865,276.6597 429.3264,273.684 437.7879,267.4652" />
<path stroke="black" stroke-width="1" fill="none" d="M437.7879,267.4652 C437.7879,259.1295 437.7879,244.8854 437.7879,242.4581" />
<path stroke="black" stroke-width="1" fill="none" d="M437.7879,242.4581 C429.3264,248.0663 420.865,252.6853 412.4036,248.7098" />
<path stroke="black" stroke-width="1" fill="none" d="M412.4036,248.7098 C403.9421,254.8674 395.4807,275.3313 387.0192,281.6359" />
<path stroke="black" stroke-width="1" fill="none" d="M387.0192,281.6359 C378.5578,290.6381 370.0964,298.1236 361.6349,301.6416" />
<path stroke="black" stroke-width="1" fill="none" d="M361.6349,301.6416 C353.1735,309.1376 344.712,319.3496 336.2506,327.0654" />
<path stroke="black" stroke-width="1" fill="none" d="M336.2506,327.0654 C327.7892,335.3491 319.3277,344.854 310.8663,351.239" />
<path stroke="black" stroke-width="1" fill="none" d="M310.8663,351.239 C302.4048,359.2332 293.9434,368.6001 285.482,374.9957" />
<path stroke="black" stroke-width="1" fill="none" d="M285.482,374.9957 C277.0205,379.7322 268.5591,380.2169 260.0976,377.9132" />
<path stroke="black" stroke-width="1" fill="none" d="M260.0976,377.9132 C268.5591,386.7984 277.0205,349.2047 285.482,346.6543" />
<path stroke="black" stroke-width="1" fill="none" d="M285.482,346.6543 C293.9434,342.6529 302.4048,342.9402 310.8663,351.239" />
<path stroke="black" stroke-width="1" fill="none" d="M310.8663,351.239 C319.3277,353.215 327.7892,355.1055 336.2506,358.3243" />
<path stroke="black" stroke-width="1" fill="none" d="M336.2506,358.3243 C344.712,361.9548 353.1735,365.679 361.6349,372.495" />
<path stroke="black" stroke-width="1" fill="none" d="M361.6349,372.495 C370.0964,376.7708 378.5578,380.0657 387.0192,384.165" />
<path stroke="black" stroke-width="1" fill="none" d="M387.0192,384.165 C395.4807,387.0102 403.9421,388.783 412.4036,390" />
<path stroke="black" stroke-width="1" fill="none" d="M412.4036,390 C420.865,390.9262 429.3264,390.8104 437.7879,389.5832" />
</svg>